<svg width="83" height="23" viewBox="0 0 83 23" fill="none" xmlns="http://www.w3.org/2000/svg">
<path d="M0.753906 15.1175H5.85391V8.0455C5.85391 7.1495 5.85391 5.7735 6.74641 4.9095C7.16078 4.4935 7.60703 4.3975 8.14891 4.3975C8.65891 4.3975 9.23266 4.4935 9.67891 4.9735C10.2527 5.5815 10.3483 6.6695 10.3483 8.0455V15.1175H15.4483V7.7895C15.4483 7.0855 15.512 5.9015 16.3727 5.0695C16.8189 4.6535 17.297 4.4935 17.8708 4.4935C18.5402 4.4935 18.9227 4.7175 19.2095 4.9735C19.7833 5.5175 19.9427 6.5415 19.9427 8.0455V15.1175H25.0427V5.8055C25.0427 4.8135 24.9789 3.1175 23.7039 1.8695C22.5245 0.717496 20.8033 0.557496 19.7514 0.557496C18.7952 0.557496 17.807 0.685496 16.787 1.2615C16.1495 1.6135 15.4164 2.2215 14.8427 3.2455C14.492 2.5415 13.9183 1.7415 12.8664 1.1975C12.1014 0.781496 11.1452 0.557496 10.1252 0.557496C8.72266 0.557496 7.06516 1.0695 5.85391 2.5415V0.813496H0.753906V15.1175ZM33.6824 13.7415C35.2761 15.4055 37.1886 15.5975 38.113 15.5975C39.5474 15.5975 41.3961 15.1815 42.9899 13.6135C44.3605 12.2695 45.2849 10.3495 45.2849 7.9495C45.2849 5.4855 44.2968 3.5975 43.1174 2.4135C41.9699 1.2615 40.2486 0.333496 38.0492 0.333496C35.9455 0.333496 34.5749 1.2615 33.6824 2.3815V0.813496H28.5824V22.4455H33.6824V13.7415ZM36.8061 4.6855C37.6986 4.6855 38.4955 5.0375 39.0693 5.6455C39.7068 6.2855 40.0574 7.2135 40.0574 8.0135C40.0574 8.87749 39.6111 9.7415 39.0693 10.2855C38.4955 10.8935 37.6986 11.2455 36.8061 11.2455C35.9455 11.2455 35.1167 10.8935 34.5111 10.2855C33.9692 9.7415 33.523 8.8455 33.523 8.0135C33.523 7.2135 33.8736 6.2855 34.5111 5.6455C35.1167 5.0375 35.9455 4.6855 36.8061 4.6855ZM46.1596 0.813496L53.4908 15.1175H56.9333L60.344 7.2455L63.914 15.1175H67.3565L74.8152 0.813496H69.1414L65.5714 8.5895L61.9696 0.813496H58.8458L55.244 8.36549L51.8652 0.813496H46.1596Z" fill="white"/>
<path d="M79.6724 14.9895C80.5012 14.9895 81.3299 14.6695 81.9993 13.9975C82.573 13.4215 82.9555 12.7175 82.9555 11.6615C82.9555 10.6055 82.573 9.9015 82.0312 9.3575C81.3299 8.6535 80.4693 8.3335 79.6724 8.3335C78.9712 8.3335 78.1105 8.5575 77.3455 9.3255C76.9312 9.7415 76.3574 10.5095 76.3574 11.6615C76.3574 12.8135 76.9312 13.5815 77.3455 13.9975C78.1105 14.7655 78.9712 14.9895 79.6724 14.9895Z" fill="#44D500"/>
</svg>
